<svg width="185" height="40" fill="none" xmlns="http://www.w3.org/2000/svg"><path d="M176.9 28.06a7.74 7.74 0 0 1-3.16-.65 8.1 8.1 0 0 1-2.59-1.8 8.63 8.63 0 0 1-1.74-2.68 8.64 8.64 0 0 1-.63-3.28 8.56 8.56 0 0 1 2.37-5.95 7.74 7.74 0 0 1 5.74-2.46 7.75 7.75 0 0 1 5.74 2.46 8.44 8.44 0 0 1 2.37 5.95 8.5 8.5 0 0 1-2.37 5.96 8.1 8.1 0 0 1-2.58 1.8c-.98.43-2.03.65-3.16.65zm-.02-3.07a4.48 4.48 0 0 0 4.37-3.19c.23-.65.35-1.37.35-2.15 0-.78-.12-1.5-.35-2.14a5.16 5.16 0 0 0-.99-1.7 4.44 4.44 0 0 0-3.38-1.5 4.5 4.5 0 0 0-3.37 1.5 5.15 5.15 0 0 0-.98 1.7 6.44 6.44 0 0 0-.34 2.14c0 .78.1 1.5.34 2.15.23.65.56 1.21.98 1.7a4.43 4.43 0 0 0 3.37 1.5zM157.48 27.78V11.56h5.9c.86 0 1.6.18 2.24.53a3.7 3.7 0 0 1 1.47 1.5c.35.66.53 1.42.53 2.3v.28c0 .97-.2 1.76-.59 2.36-.39.6-.87 1.05-1.43 1.32v.42c.51.03.91.25 1.2.65.28.39.43.9.43 1.55v5.3h-2.57v-4.86c0-.37-.08-.67-.25-.9-.15-.23-.42-.35-.8-.35h-3.57v6.12h-2.56zm2.56-8.9h3.07c.6 0 1.08-.2 1.42-.58.35-.4.52-.92.52-1.57v-.23c0-.65-.17-1.17-.5-1.56-.34-.4-.82-.6-1.44-.6h-3.07v4.54zM145.1 27.78V11.56h5.7a4.2 4.2 0 0 1 3.85 2.34c.38.74.58 1.62.58 2.64v.33c0 1-.2 1.88-.6 2.64a4.34 4.34 0 0 1-1.58 1.73c-.66.4-1.41.6-2.26.6h-3.09v5.94h-2.6zm2.6-8.71h2.84c.62 0 1.12-.2 1.5-.6.38-.4.57-.96.57-1.65v-.23c0-.7-.19-1.25-.57-1.65-.38-.4-.88-.6-1.5-.6h-2.84v4.73zM137.96 27.86a5.9 5.9 0 0 1-2.84-.66 4.76 4.76 0 0 1-1.93-1.9 5.95 5.95 0 0 1-.69-2.96v-.64h2.58v.64c0 .96.26 1.68.77 2.17a3 3 0 0 0 2.11.7c.9 0 1.57-.2 2-.61.46-.41.68-.94.68-1.58 0-.44-.11-.8-.34-1.07-.2-.27-.53-.5-.95-.66a9.58 9.58 0 0 0-1.5-.5l-.47-.12c-.95-.24-1.77-.55-2.46-.91a4.22 4.22 0 0 1-1.57-1.49c-.35-.6-.53-1.4-.53-2.37 0-.98.2-1.8.6-2.49.4-.7.97-1.23 1.7-1.6.74-.38 1.6-.57 2.6-.57s1.88.2 2.64.6c.78.37 1.4.95 1.83 1.73.45.76.68 1.72.68 2.88v.68h-2.59v-.68c0-.61-.1-1.1-.31-1.46-.2-.39-.5-.66-.88-.83a3.16 3.16 0 0 0-1.37-.27c-.8 0-1.38.17-1.76.52-.38.34-.56.8-.56 1.4 0 .4.09.73.26 1 .18.28.45.5.81.69.36.18.81.34 1.37.48l.46.11c1 .24 1.85.56 2.58.94.74.38 1.32.88 1.73 1.5.4.63.61 1.43.61 2.4a5 5 0 0 1-.65 2.58 4.53 4.53 0 0 1-1.83 1.74 5.9 5.9 0 0 1-2.78.61zM124.3 27.78V14.34h-4.05v-2.78h10.7v2.78h-4.04v13.44h-2.61zM109 27.78V11.56h5.9c.85 0 1.6.18 2.23.53a3.7 3.7 0 0 1 1.48 1.5c.34.66.52 1.42.52 2.3v.28c0 .97-.2 1.76-.58 2.36-.4.6-.87 1.05-1.44 1.32v.42c.52.03.92.25 1.2.65.29.39.43.9.43 1.55v5.3h-2.56v-4.86c0-.37-.09-.67-.25-.9-.16-.23-.43-.35-.8-.35h-3.57v6.12h-2.57zm2.56-8.9h3.06c.61 0 1.09-.2 1.42-.58.35-.4.53-.92.53-1.57v-.23c0-.65-.17-1.17-.5-1.56-.34-.4-.82-.6-1.44-.6h-3.07v4.54zM94.28 27.78l3.64-16.22h4.55l3.63 16.22h-2.69l-.75-3.57h-4.94l-.75 3.57h-2.7zm4.05-6.4h3.72l-1.68-7.9H100l-1.68 7.9zM84.74 27.78V11.56h5.7a4.2 4.2 0 0 1 3.87 2.34c.38.74.57 1.62.57 2.64v.33c0 1-.2 1.88-.6 2.64a4.34 4.34 0 0 1-1.58 1.73c-.66.4-1.41.6-2.26.6h-3.08v5.94h-2.62zm2.62-8.71h2.83c.62 0 1.12-.2 1.5-.6.38-.4.58-.96.58-1.65v-.23c0-.7-.2-1.25-.58-1.65-.38-.4-.88-.6-1.5-.6h-2.83v4.73z" fill="#272A33"/><path d="M40.59 5.66H5.66v17H40.6v5.66H0V0h40.59v5.66z" fill="#222"/><path d="M50.97 39.64H11.33v-5.66H45.3V16.99H11.33v-5.66h39.64v28.31z" fill="#EE753E"/><path d="M81.69 14.84H64.87v3h16.82v10.22H61.27v-3.6h16.81v-3H61.27V11.23h20.42v3.6z" fill="#272A33"/></svg>